<svg xmlns="http://www.w3.org/2000/svg" width="625" height="69" viewBox="0 0 625 69"><g fill="#1a1918" fill-rule="evenodd"><path d="m32.3 14.4c4.5-.6 7 3.8 5.2 7.2-2.1 3.9-8.8 3-9.4-1.7-.4-2.8 1.7-5.2 4.2-5.5"/><path d="m19.4 39.2c.5.8 1.2 1.4 2.1 1.7 0-.8 0-2.6-.6-3.5-.5.6-1.1 1.2-1.5 1.8m24.9-2.6c1-.2 2.1-.5 2.7-1.1-.8-.6-1.3-1.6-2.6-1.8-.4.9-.1 1.7-.1 2.9m-2.2-7c.8.5 1.5.6 2.3 1 1.9.9 3.5 2.6 4.8 4.4.7-.2 1.2-.5 1.9-.7.6 1.7 1.3 3.5 1.9 5.4-.7.5-1.8.7-2.7 1.1-.2 1.2-1.3 2.4-2.8 1.5.5 1.2 1.1 2.2 1.6 3.4-.4.6-1.2.6-1.4 1.4-.2.7.5 2.4.8 3.3.7 2.3 1.4 4.2 2 6.6.3 1.2.6 3.1-.4 3.2-1 .1-1.6-2-1.9-2.7-1-2.3-1.8-4.3-2.7-6.6-.4-1-.9-2.2-1.6-3-1.8-.4-2 1.8-2.4 3.2-.7 2.6-1.3 4.9-2.1 7.2-.3 1.1-.7 2.9-1.6 2.9-1.2 0-.9-2.1-.8-3 .2-1.6.5-2.7.7-4.2.1-.8.3-1.7.5-2.6.2-.9.7-2.1.5-2.7-.1-.7-.8-.7-1.1-1.2.3-2.9 1.4-5.1 2.4-7.4.1-1.9-.8-2.9-1.6-4-1 .9-1.5 2.3-2.1 3.6-.6 1.3-1 2.7-1.5 4 .3 1 .4 2.3-.4 2.9-.8.6-2 .2-2.5-.6 0-.7 0-1.3.2-1.8-1.4-2.3-2.6-5-4.1-7.3-1.1 3.4-.4 6.4.4 9.7.6 2.5 1 5 1.4 7.3.2 1.6.6 3.1.8 5 .1.7.3 1.7-.3 2.3-1.7.2-1.9-1.6-2.3-2.8-.9-2.4-1.7-5-2.4-7.7-.3-1.3-.5-2.7-1.3-3.7-1 .8-1.1 2.3-1.4 3.6-.8 2.5-1.6 5.1-2.4 7.7-.4 1.2-.5 3-2.2 2.9-1-1-.4-3.1-.1-5.1.7-3.7 1.5-8.1 2.3-11.7-.6.2-.9 1-1.7 1.1-1.1.1-1.6-.8-2.3-1.4-.7.2-.9.8-1.6.7-.3-.1-.8-.6-.9-1-.2-.4.1-.9 0-1.4-.3-1-1.8-1.3-2.3-2.2.4-.8 1.2-1.4 1.8-2 .6-.7 1.1-1.4 1.8-2 .9.3 1.3 1.1 2.1 1.5.7-.8 1.3-1.8 2-2.7.5-.9 1.1-2 1.9-2.6.7-.6 1.7-.5 2.3-1.3-.6-2.1-2.5-2.8-2-5.2.8-3.5 6.6-3.5 7.1.2.1.9 0 1.6-.2 2.1-.4.9-2.2 1.5-2.2 2.5-.1.8 1 1 1.7 1.4 2.8 1.9 3.7 6.9 5.3 9.8 1.8-4.2 2-9.9 6.2-11.7.1-1.5-1.1-1.7-1.6-2.4-.4-.6-.8-1.5-.6-2.7.4-3.4 5.5-4.1 6.7-.9.4 1.1 0 2.3-.7 3.2-.4.6-1.5.9-1.2 2.2m-13.9-15.8c-1.2 1.4-2.7 2.7-3.9 4.1-3.8 4.2-7.7 8.6-11 13.2-3.2 4.4-7 10-6.3 17.9.3 3.1 1.6 6.1 3.4 8.3 1.1 1.4 3.1 3 4.6 3.7 3.6 1.7 9.2 1.9 14.3 1.7 3.2-.2 6.8-.2 10-.2 8-.1 14.9-1.6 18.2-6.2 1.2-1.6 2.1-3.8 2.4-5.9 1-6.2-1.1-12.1-3.6-15.8-5.4-8.1-12.5-15-19.3-21.3-1.5-1.4-2.8-2.8-4.5-3.9 0 0 0-.1-.1-.1-1.5 1.4-2.8 2.9-4.2 4.5m4.1-12.9h.2c2.1 1.8 4.1 3.6 6.1 5.4 1.5 1.3 3 2.7 4.4 4.2 3.2 3.2 6.8 6.5 9.9 10 4.3 4.8 9.1 9.8 12.1 16.4 2.3 5.3 2.7 12.8.4 18.7-.3.6-.7 1.3-1.2 2.1-.4.7-.7 1.6-1.1 2.2-4.4 6.3-13.4 8.5-23.8 8.9-3.4.2-6.9 0-10.5.1-7 .3-13.5-.2-18.4-2.9-2.3-1.3-4.3-3-6-5-1.6-1.9-3.1-4.4-3.8-7-.6-2.3-.6-4.9-.6-6.8 0-7.3 3.2-12.8 6.5-17.6 1.5-2.2 3.2-4.2 4.7-6 3.4-4 6.5-8 10.1-11.6 1.8-1.8 3.6-3.6 5.4-5.4 1.8-1.9 3.8-4.2 5.6-5.7" mask="url(#)"/><path d="m113.3 45.2h-.6l-16.1-19.5v9.7c0 3.8.2 5.7.4 6.9.3 1.2 1.2 1.9 3.6 2.1v.6h-8.7v-.6c2-.2 3-.9 3.2-2.1.2-1.2.5-3.1.5-6.9v-7.7c0-3.1-.1-3.3-.7-4.1-.7-.8-1.7-1.3-3.2-1.5v-.5h5.2l15.3 18.4h.1v-8.9c0-3.8-.2-5.7-.4-6.8-.3-1.3-1.3-2-3.6-2.2v-.5h8.6v.5c-2 .2-2.9.9-3.1 2.2-.3 1.1-.5 3-.5 6.8v14.1m7.1-10.6c2.2 0 4.3 0 6.5-.1.5 0 .6-.2.6-1.1 0-1.6-1-3.5-3.3-3.5-1.7 0-3.4 1.6-3.8 4.7m10 7.2c-2.1 2.9-4.6 3.6-5.5 3.6-4.5 0-7.2-3.5-7.2-7.6 0-2 .6-4.3 2.2-6.1 1.3-1.6 3.4-2.8 5.5-2.8 2.7 0 5.1 2.6 5.1 5.1 0 .9-.1.9-.7 1.1-.6.1-5 .5-9.6.6-.1 5.6 3.4 7.5 6 7.5 1.1 0 2.4-.6 3.8-1.8l.4.4m7.8 3.6l-4.5-13c-.7-2-.8-2.2-2.6-2.5v-.6h7.3v.6l-1.5.4c-.7.1-.9.5-.5 1.5l3.1 9.3c1.4-3.5 2.7-7.4 4.4-11.6h.4l4.6 11.6h.1c.9-2.9 2-6.7 2.6-9.3.3-1.1.1-1.4-.5-1.6l-1.7-.3v-.6h6.3v.6c-1.8.4-2 .7-2.7 2.2-1 2.4-3 8.4-4.6 13.3h-.5l-4.7-11.5c-1.5 3.7-2.9 7.3-4.4 11.5h-.6m32.6-6.5c0 4-.3 6.8-3.1 9.2-1.1.8-2.4 1.5-3.7 1.9l-.3-.5c2.7-1.2 3.5-2.9 3.9-5.1.3-1.8.3-3.8.3-6.7v-10.9c0-3.9-.2-4.3-3.3-4.7v-.5h9.3v.5c-2.8.4-3.1.8-3.1 4.7v12.1m6.9-4.3c2.2 0 4.3 0 6.5-.1.5 0 .6-.2.6-1.1 0-1.6-1-3.5-3.2-3.5-1.8 0-3.5 1.6-3.9 4.7m10 7.2c-2 2.9-4.6 3.6-5.5 3.6-4.5 0-7.2-3.5-7.2-7.6 0-2 .7-4.3 2.2-6.1 1.3-1.6 3.4-2.8 5.5-2.8 2.7 0 5.1 2.6 5.1 5.1 0 .9-.1.9-.7 1.1-.5.1-5 .5-9.5.6-.1 5.6 3.3 7.5 5.9 7.5 1.2 0 2.4-.6 3.8-1.8l.4.4m7-.1c0 2 .2 2.4 3 2.7v.6h-8.1v-.6c2.3-.3 2.4-.7 2.4-2.7v-8.3c0-2.1 0-2.3-2.3-2.6v-.5c1.5-.3 3.2-.8 5-1.5v3.9h.1c.8-1.5 2.5-3.8 4.2-3.8 1.1 0 1.9 1 1.9 1.7 0 .6-.3 1.3-1.1 1.6-.3.2-.6.2-.8 0-.5-.4-.9-.7-1.5-.7-.9 0-1.8.6-2.8 2.5v7.7m16.9-8.4c-1.2-2.5-2.5-3.5-4-3.5-1.5 0-2.4 1-2.4 2.5 0 1.7 1.6 2.6 3.3 3.3 2.7 1.1 4.3 2.3 4.3 4.8 0 3.3-3.1 5-5.9 5-1.7 0-3.4-.8-4.1-1.3-.1-.6-.4-2.6-.4-4l.5-.1c.7 2 2.6 4.5 4.7 4.5 1.5 0 2.7-.8 2.7-2.8 0-1.8-1.1-2.5-3-3.4-2.2-1-4.3-2.1-4.3-4.7 0-2.6 2.2-4.7 5.4-4.7 1.2 0 2.2.3 3 .6.3.8.7 3 .8 3.6l-.6.2m6.2 1.3c2.1 0 4.3 0 6.4-.1.5 0 .7-.2.7-1.1 0-1.6-1-3.5-3.3-3.5-1.7 0-3.5 1.6-3.8 4.7m9.9 7.2c-2 2.9-4.6 3.6-5.5 3.6-4.4 0-7.2-3.5-7.2-7.6 0-2 .7-4.3 2.2-6.1 1.3-1.6 3.4-2.8 5.5-2.8 2.8 0 5.1 2.6 5.1 5.1 0 .9-.1.9-.7 1.1-.5.1-5 .5-9.5.6-.1 5.6 3.3 7.5 6 7.5 1.1 0 2.3-.6 3.8-1.8l.3.4m8.1-11.9l-1.2.3c-.7.1-.7.8-.3 1.8l3.5 9.3c1-2.5 2.9-7.5 3.4-9.4.2-1.1.1-1.5-.7-1.7l-1.3-.3v-.6h6.2v.6c-1.9.4-2 .7-2.9 2.6-1.1 2-2.3 5-4.5 10.5-2.2 5.6-3.1 7.9-3.6 9.8-.2.7-.7.9-1.1.9-.9 0-1.7-.8-1.7-1.7 0-.5.4-.8.9-1.2 1-.8 2-1.8 2.7-3.2.5-1 .8-1.9.9-2.4.1-.3 0-.6-.2-1.2-1.3-4-3-8.4-4.1-11.2-.9-2.2-1-2.5-3.2-2.9v-.6h7.2v.6m18.6 8.7c.7 1.6 2.7 5.9 6.7 5.9 2.7 0 4.5-1.6 4.5-4.6 0-3.6-2.9-4.8-4.9-5.8-1.4-.7-5.9-2.4-5.9-6.5 0-3.5 2.6-6.6 7.3-6.6 2 0 3.2.6 4.3.8.1 1.3.4 2.7.7 4.9l-.6.1c-.8-2.1-1.9-4.9-5.2-4.9-2.8 0-4 1.9-4 4.1 0 2.7 2 4 4.7 5.2 2.7 1.2 6.2 2.8 6.2 7.1 0 4-3.4 7.1-8 7.2-1.2-.1-2.5-.3-3.3-.6-.9-.3-1.5-.6-1.9-.8-.4-.9-.8-3.5-1.1-5.4l.5-.1m28.6-8.7c.3.2.4.4.4.8 0 .8-.8 1.5-1.2 1.5-.2 0-.3 0-.6-.2-1.4-1.3-2.6-1.6-3.9-1.6-2 0-4.2 1.6-4.2 5.8 0 5.6 4 7 5.7 7 1.6 0 2.5-.4 4.3-2.2l.4.4c-1.5 2.3-3.7 4-5.8 4-4.5 0-7.4-3.7-7.4-7.4 0-2.8 1.2-5.3 3.3-6.9 2.3-1.8 4.7-2.2 5.9-2.2.8 0 2.3.3 3.1 1m6.8 1.6c1.2-1.2 3.2-2.5 5.2-2.6 3-.1 4.9 1.8 4.9 5.3v7.5c0 2 .1 2.4 2.3 2.7v.6h-7.5v-.6c2.3-.3 2.5-.7 2.5-2.7v-6.5c0-2.7-1-4.5-3.8-4.5-1.4.1-2.7.6-3.6 1.6v9.4c0 2 .2 2.4 2.3 2.7v.6h-7.4v-.6c2.2-.3 2.4-.7 2.4-2.7v-17.9c0-2.2-.1-2.4-2.5-2.7v-.4c1.6-.4 4-.9 5.2-1.3v12.1m17.4 4.8c0 4.7 2.1 8.3 5.2 8.3 2.3 0 4.2-2 4.2-7.1 0-3.9-1.7-7.8-5-7.8-2.5 0-4.4 2.7-4.4 6.6m-3.1 1.2c0-5.9 4.6-8.6 7.9-8.6 4.5 0 7.8 3.6 7.8 7.9 0 5.7-4.1 8.6-7.8 8.6-5 0-7.9-4-7.9-7.9m21.6-1.2c0 4.7 2 8.3 5.1 8.3 2.3 0 4.3-2 4.3-7.1 0-3.9-1.8-7.8-5.1-7.8-2.5 0-4.3 2.7-4.3 6.6m-3.2 1.2c0-5.9 4.6-8.6 7.9-8.6 4.5 0 7.8 3.6 7.8 7.9 0 5.7-4.1 8.6-7.7 8.6-5.1 0-8-4-8-7.9m20.1-13.7c0-2.2-.1-2.5-2.5-2.7v-.4c1.7-.4 3.9-.9 5.2-1.3v22.3c0 2 .2 2.4 2.5 2.7v.6h-7.7v-.6c2.3-.3 2.5-.7 2.5-2.7v-17.9m20.9 8.8v8c0 2.9.5 3.6 3.1 3.6 3.1 0 5.6-1.7 5.6-5.7 0-4-2.8-5.9-6.6-5.9h-2.1m0-.7h2.3c3.4 0 5.1-1.6 5.1-4.7 0-2.2-.9-4.9-5.1-4.9-1.2 0-1.7 0-2 .2-.2.1-.3.2-.3.9v8.5m3.5-10.3c2.4 0 4.1.4 5.2 1.2 1.3.9 1.9 2.2 1.9 4 0 3.1-3 4.7-4.7 5.1v.1c3.3.5 6.2 2.4 6.2 6 0 2.6-1.2 4.4-3.3 5.6-1.8 1-4.1 1.4-6.9 1.4h-8v-.6c3-.3 3.3-.8 3.3-4.7v-12.9c0-3.9-.3-4.3-3.1-4.7v-.5h9.4m14.6 14.7c0 4.7 2 8.3 5.2 8.3 2.3 0 4.2-2 4.2-7.1 0-3.9-1.8-7.8-5.1-7.8-2.5 0-4.3 2.7-4.3 6.6m-3.2 1.2c0-5.9 4.6-8.6 7.9-8.6 4.6 0 7.8 3.6 7.8 7.9 0 5.7-4.1 8.6-7.7 8.6-5 0-8-4-8-7.9m27-1.4c-.8.3-3 1.3-3.6 1.7-1.4.6-2.1 1.4-2.1 2.7 0 2 1.4 3 2.6 3 .9 0 2.1-.5 3.1-1.3v-6.1m2.6 5.3c0 1.3.5 2 1 2 .3 0 .9-.1 1.5-.4l.3.5-3.4 1.9c-1.3-.2-1.8-1.5-2-2.4-1.5 1-3.5 2.4-4.2 2.4-2.7 0-4.4-2.2-4.4-4.2 0-1.6.9-2.8 2.8-3.5 1.9-.7 4.5-1.7 5.8-2.4v-1.5c0-2.2-1-3.6-2.8-3.6-1 0-1.5.3-1.8.6-.5.4-.9.9-1.3 2.6 0 .4-.3.7-.8.7-.6 0-1.5-.5-1.5-1.3 0-.4.3-.9 1.1-1.5.9-.6 3.1-1.9 5.5-2.4 1 0 2.1.3 2.7.8 1.3 1 1.5 2.3 1.5 3.6v8.1m9.2.3c0 2 .1 2.4 2.9 2.7v.6h-8.1v-.6c2.3-.3 2.5-.7 2.5-2.7v-8.3c0-2.1-.1-2.3-2.4-2.6v-.5c1.5-.3 3.3-.8 5.1-1.5v3.9c.9-1.5 2.6-3.8 4.2-3.8 1.1 0 2 1 2 1.7 0 .6-.4 1.3-1.1 1.6-.4.2-.7.2-.9 0-.5-.4-.9-.7-1.5-.7-.8 0-1.7.6-2.7 2.5v7.7m18.9-9.9c-.8-1.3-2.2-1.8-3.7-1.8-1.5 0-5 .8-5 6.8 0 4.4 2.7 6.6 5.1 6.6 1.3 0 2.8-.6 3.6-1.1v-10.5m2.7 9.6c0 1.6.2 1.9 1.1 2l1.5.2v.5c-.5.1-3.2.5-5.3 1.4v-2.4l-2.9 1.6c-1.1.6-1.6.7-2 .7-2.9 0-6.8-2.7-6.8-7.6 0-4.9 4.1-8.9 9.6-8.9.3 0 1.5.1 2.1.3v-5.4c0-2.2-.1-2.5-2.7-2.7v-.4c1.8-.4 4.2-.9 5.4-1.3v22m13.4-8.1c-1.2-2.5-2.5-3.5-4-3.5-1.5 0-2.4 1-2.4 2.5 0 1.7 1.6 2.6 3.3 3.3 2.7 1.1 4.3 2.3 4.3 4.8 0 3.3-3.1 5-5.8 5-1.8 0-3.5-.8-4.2-1.3-.1-.6-.4-2.6-.4-4l.6-.1c.6 2 2.5 4.5 4.6 4.5 1.5 0 2.7-.8 2.7-2.8 0-1.8-1.1-2.5-3-3.4-2.1-1-4.3-2.1-4.3-4.7 0-2.6 2.2-4.7 5.4-4.7 1.3 0 2.3.3 3 .6.3.8.7 3 .8 3.6l-.6.2m16.6 1.5h7l-3.5-9.2-3.5 9.2m-7.2 10.2v-.6c2.3-.5 2.7-.8 4.1-4.3l7.4-18.9.5-.2 2.6 6.9c1.8 4.5 3.4 9.1 4.8 12.8 1.2 2.9 1.6 3.2 3.9 3.7v.6h-8.6v-.6l1.1-.3c1.3-.3 1.4-.7 1.1-1.8-.2-.8-1.3-3.6-2.3-6.4h-7.7c-.5 1.1-1.4 3.9-1.7 5.3-.6 2.2-.2 2.6 1.7 3.1l.8.1v.6h-7.7m33.4-11.7c-1.2-2.5-2.5-3.5-4-3.5-1.5 0-2.4 1-2.4 2.5 0 1.7 1.6 2.6 3.2 3.3 2.8 1.1 4.4 2.3 4.4 4.8 0 3.3-3.1 5-5.9 5-1.7 0-3.4-.8-4.1-1.3-.1-.6-.4-2.6-.4-4l.5-.1c.7 2 2.6 4.5 4.6 4.5 1.6 0 2.8-.8 2.8-2.8 0-1.8-1.1-2.5-3-3.4-2.2-1-4.3-2.1-4.3-4.7 0-2.6 2.2-4.7 5.4-4.7 1.2 0 2.2.3 3 .6.3.8.7 3 .8 3.6l-.6.2m12.7 0c-1.2-2.5-2.5-3.5-4.1-3.5-1.5 0-2.4 1-2.4 2.5 0 1.7 1.6 2.6 3.3 3.3 2.7 1.1 4.3 2.3 4.3 4.8 0 3.3-3.1 5-5.8 5-1.8 0-3.4-.8-4.1-1.3-.2-.6-.5-2.6-.5-4l.6-.1c.6 2 2.5 4.5 4.6 4.5 1.5 0 2.8-.8 2.8-2.8 0-1.8-1.2-2.5-3-3.4-2.2-1-4.4-2.1-4.4-4.7 0-2.6 2.2-4.7 5.4-4.7 1.3 0 2.3.3 3 .6.4.8.7 3 .8 3.6l-.5.2m6.5 3c0 4.7 2.1 8.3 5.2 8.3 2.3 0 4.2-2 4.2-7.1 0-3.9-1.7-7.8-5-7.8-2.5 0-4.4 2.7-4.4 6.6m-3.1 1.2c0-5.9 4.6-8.6 7.9-8.6 4.5 0 7.8 3.6 7.8 7.9 0 5.7-4.1 8.6-7.8 8.6-5 0-7.9-4-7.9-7.9m30.7-7.6c.2.2.3.4.3.8 0 .8-.7 1.5-1.2 1.5-.1 0-.2 0-.5-.2-1.4-1.3-2.6-1.6-3.9-1.6-2.1 0-4.2 1.6-4.2 5.8 0 5.6 3.9 7 5.7 7 1.5 0 2.4-.4 4.3-2.2l.4.4c-1.5 2.3-3.7 4-5.8 4-4.5 0-7.4-3.7-7.4-7.4 0-2.8 1.2-5.3 3.3-6.9 2.3-1.8 4.7-2.2 5.8-2.2.9 0 2.4.3 3.2 1m7.9-7.6c0 1-.8 1.8-1.8 1.8-.9 0-1.8-.8-1.8-1.8 0-1.1.9-1.9 1.8-1.9 1 0 1.8.8 1.8 1.9m-.4 19.4c0 2 .1 2.4 2.5 2.7v.6h-7.8v-.6c2.4-.3 2.6-.7 2.6-2.7v-8.3c0-2.1-.1-2.3-2.4-2.6v-.5c1.5-.3 3.3-.8 5.1-1.5v12.9m12.7-5.6c-.8.3-2.9 1.3-3.6 1.7-1.4.6-2 1.4-2 2.7 0 2 1.3 3 2.5 3 .9 0 2.1-.5 3.1-1.3v-6.1m2.6 5.3c0 1.3.5 2 1 2 .3 0 .9-.1 1.6-.4l.2.5-3.4 1.9c-1.3-.2-1.8-1.5-2-2.4-1.5 1-3.4 2.4-4.2 2.4-2.7 0-4.4-2.2-4.4-4.2 0-1.6.9-2.8 2.8-3.5 1.9-.7 4.5-1.7 5.8-2.4v-1.5c0-2.2-1-3.6-2.8-3.6-.9 0-1.5.3-1.8.6-.5.4-.9.9-1.3 2.6 0 .4-.3.7-.8.7-.6 0-1.5-.5-1.5-1.3 0-.4.4-.9 1.2-1.5.8-.6 3-1.9 5.5-2.4.9 0 2 .3 2.7.8 1.3 1 1.4 2.3 1.4 3.6v8.1m8.8-1.2c0 2.8 1.4 3.4 2.4 3.4.6 0 1.5-.3 2.3-.7l.3.5-3 1.7c-.5.2-.8.3-1 .3-2.5 0-3.7-1.5-3.7-4.2v-10.7h-2.6l-.1-.3 1.1-.9h1.6v-2.1l2.3-2.7.4.2v4.6h4.3c.3.4.2.8-.2 1.2h-4.1v9.7m11.8-17.9c0 1-.8 1.8-1.7 1.8-1 0-1.8-.8-1.8-1.8 0-1.1.8-1.9 1.8-1.9.9 0 1.7.8 1.7 1.9m-.4 19.4c0 2 .2 2.4 2.6 2.7v.6h-7.8v-.6c2.4-.3 2.5-.7 2.5-2.7v-8.3c0-2.1 0-2.3-2.3-2.6v-.5c1.5-.3 3.2-.8 5-1.5v12.9m7.4-5.4c0 4.7 2.1 8.3 5.2 8.3 2.3 0 4.2-2 4.2-7.1 0-3.9-1.7-7.8-5-7.8-2.5 0-4.4 2.7-4.4 6.6m-3.1 1.2c0-5.9 4.6-8.6 7.9-8.6 4.5 0 7.8 3.6 7.8 7.9 0 5.7-4.1 8.6-7.8 8.6-5 0-7.9-4-7.9-7.9m23.2-5.8c.7-.5 1.6-1.2 2.6-1.8 1-.6 1.8-1 2.9-1 3 0 4.5 1.9 4.5 4.7v8.1c0 2 .2 2.4 2.2 2.7v.6h-7.5v-.6c2.5-.3 2.6-.7 2.6-2.7v-6.9c0-2.1-.6-4.1-3.4-4.1-1.4 0-2.7.8-3.9 1.8v9.2c0 2 .1 2.4 2.4 2.7v.6h-7.7v-.6c2.4-.3 2.6-.7 2.6-2.7v-8.3c0-2.1-.1-2.3-2.4-2.6v-.5c1.5-.3 3.3-.8 5.1-1.5v2.9"/></g></svg>